# xmcd
#
# Track frame offsets:
#	150
#	17593
#	34415
#	48214
#	67035
#	82237
#	94631
#	107917
#	122603
#	140532
#	156275
#	174259
#	186032
#
# Disc length: 2719 seconds
#
# Revision: 2
# Processed by: cddbd v1.5.2PL0 Copyright (c) Steve Scherf et al.
# Submitted via: dBpowerAMP V4.0
#
DISCID=ac0a9d0d
DTITLE=BAITACA - Meu Rio Grande é Deste Jeito
DYEAR=1900
DGENRE=Country
TTITLE0=Missioneiro Extraviado
TTITLE1=Domador Ventena
TTITLE2=De Tudo Um Pouco
TTITLE3=História Do Tico Louco
TTITLE4=Das Missões Para O Rio Grande
TTITLE5=Bugio Lacaio
TTITLE6=Cada Vez Mais Xucro
TTITLE7=Na Fazenda Ferradura
TTITLE8=Do Fundo Da Grota
TTITLE9=Encontrei A Marcolina
TTITLE10=Retoço De Xucro
TTITLE11=Meu Rio Grande É Deste Jeito
TTITLE12=O Novo Encontro Com O Tico
EXTD=Baitaca - Meu Rio Grande É Deste Jeito 
EXTT0=
EXTT1=
EXTT2=
EXTT3=
EXTT4=
EXTT5=
EXTT6=
EXTT7=
EXTT8=
EXTT9=
EXTT10=
EXTT11=
EXTT12=
PLAYORDER=
